<mxfile host="65bd71144e">
    <diagram id="Dgjctag4YkHW1n3sIz1D" name="Page-1">
        <mxGraphModel dx="1917" dy="578" grid="1" gridSize="10" guides="1" tooltips="1" connect="1" arrows="1" fold="1" page="1" pageScale="1" pageWidth="827" pageHeight="1169" math="0" shadow="0">
            <root>
                <mxCell id="0"/>
                <mxCell id="1" parent="0"/>
                <mxCell id="7" value="" style="edgeStyle=none;html=1;" parent="1" source="2" target="6" edge="1">
                    <mxGeometry relative="1" as="geometry">
                        <Array as="points">
                            <mxPoint x="210" y="230"/>
                        </Array>
                    </mxGeometry>
                </mxCell>
                <mxCell id="2" value="20" style="rounded=0;whiteSpace=wrap;html=1;fillColor=#647687;fontColor=#ffffff;strokeColor=#314354;" parent="1" vertex="1">
                    <mxGeometry x="150" y="260" width="120" height="30" as="geometry"/>
                </mxCell>
                <mxCell id="10" value="" style="edgeStyle=none;html=1;fontColor=#C8F000;" parent="1" target="9" edge="1">
                    <mxGeometry relative="1" as="geometry">
                        <mxPoint x="270" y="309" as="sourcePoint"/>
                    </mxGeometry>
                </mxCell>
                <mxCell id="3" value="17" style="rounded=0;whiteSpace=wrap;html=1;fillColor=#647687;fontColor=#ffffff;strokeColor=#314354;" parent="1" vertex="1">
                    <mxGeometry x="150" y="290" width="120" height="30" as="geometry"/>
                </mxCell>
                <mxCell id="4" value="14" style="rounded=0;whiteSpace=wrap;html=1;fillColor=#647687;fontColor=#ffffff;strokeColor=#314354;" parent="1" vertex="1">
                    <mxGeometry x="150" y="320" width="120" height="30" as="geometry"/>
                </mxCell>
                <mxCell id="5" value="7" style="rounded=0;whiteSpace=wrap;html=1;fillColor=#647687;fontColor=#ffffff;strokeColor=#314354;" parent="1" vertex="1">
                    <mxGeometry x="150" y="350" width="120" height="30" as="geometry"/>
                </mxCell>
                <mxCell id="6" value="20" style="whiteSpace=wrap;html=1;rounded=0;fillColor=#fa6800;fontColor=#000000;strokeColor=#C73500;" parent="1" vertex="1">
                    <mxGeometry x="240" y="170" width="120" height="30" as="geometry"/>
                </mxCell>
                <mxCell id="8" value="Pop" style="text;html=1;fontSize=24;fontStyle=1;verticalAlign=middle;align=center;fontColor=#C8F000;" parent="1" vertex="1">
                    <mxGeometry x="140" y="230" width="70" height="30" as="geometry"/>
                </mxCell>
                <mxCell id="9" value="&lt;span&gt;17&lt;/span&gt;" style="whiteSpace=wrap;html=1;fillColor=#647687;strokeColor=#314354;fontColor=#ffffff;rounded=0;" parent="1" vertex="1">
                    <mxGeometry x="330" y="295" width="120" height="27.5" as="geometry"/>
                </mxCell>
                <mxCell id="19" value="" style="edgeStyle=none;html=1;fontColor=#C8F000;" parent="1" source="11" target="18" edge="1">
                    <mxGeometry relative="1" as="geometry"/>
                </mxCell>
                <mxCell id="11" value="14" style="whiteSpace=wrap;html=1;fillColor=#647687;strokeColor=#314354;fontColor=#ffffff;rounded=0;" parent="1" vertex="1">
                    <mxGeometry x="330" y="322.5" width="120" height="27.5" as="geometry"/>
                </mxCell>
                <mxCell id="12" value="7" style="whiteSpace=wrap;html=1;fillColor=#647687;strokeColor=#314354;fontColor=#ffffff;rounded=0;" parent="1" vertex="1">
                    <mxGeometry x="330" y="350" width="120" height="27.5" as="geometry"/>
                </mxCell>
                <mxCell id="15" value="" style="edgeStyle=none;html=1;" parent="1" edge="1">
                    <mxGeometry relative="1" as="geometry">
                        <mxPoint x="389.9999999999998" y="295" as="sourcePoint"/>
                        <mxPoint x="450" y="235" as="targetPoint"/>
                        <Array as="points">
                            <mxPoint x="390" y="265"/>
                        </Array>
                    </mxGeometry>
                </mxCell>
                <mxCell id="16" value="Pop" style="text;html=1;fontSize=24;fontStyle=1;verticalAlign=middle;align=center;fontColor=#C8F000;" parent="1" vertex="1">
                    <mxGeometry x="320" y="265" width="70" height="30" as="geometry"/>
                </mxCell>
                <mxCell id="17" value="17" style="whiteSpace=wrap;html=1;rounded=0;fillColor=#fa6800;fontColor=#000000;strokeColor=#C73500;" parent="1" vertex="1">
                    <mxGeometry x="420" y="200" width="120" height="30" as="geometry"/>
                </mxCell>
                <mxCell id="18" value="&lt;span&gt;14&lt;/span&gt;" style="whiteSpace=wrap;html=1;fillColor=#647687;strokeColor=#314354;fontColor=#ffffff;rounded=0;" parent="1" vertex="1">
                    <mxGeometry x="510" y="325" width="120" height="26.25" as="geometry"/>
                </mxCell>
                <mxCell id="20" value="7" style="whiteSpace=wrap;html=1;fillColor=#647687;strokeColor=#314354;fontColor=#ffffff;rounded=0;" parent="1" vertex="1">
                    <mxGeometry x="510" y="351.25" width="120" height="26.25" as="geometry"/>
                </mxCell>
                <mxCell id="22" value="" style="edgeStyle=none;html=1;" parent="1" edge="1">
                    <mxGeometry relative="1" as="geometry">
                        <mxPoint x="569.9999999999995" y="325" as="sourcePoint"/>
                        <mxPoint x="630" y="265" as="targetPoint"/>
                        <Array as="points"/>
                    </mxGeometry>
                </mxCell>
                <mxCell id="23" value="Topo da Pilha" style="text;html=1;fontSize=24;fontStyle=1;verticalAlign=middle;align=center;fontColor=#C8F000;" parent="1" vertex="1">
                    <mxGeometry x="630" y="230" width="70" height="30" as="geometry"/>
                </mxCell>
            </root>
        </mxGraphModel>
    </diagram>
</mxfile>